<svg xmlns="http://www.w3.org/2000/svg" width="411" height="130" viewBox="0 0 411 130" version="1.1"><path d="M 250.277 7.511 C 228.975 12.140, 212.068 27.572, 205.370 48.500 C 201.753 59.802, 201.762 73.225, 205.394 84.578 C 212.317 106.216, 230.728 122.057, 253.230 125.734 C 261.800 127.135, 263.580 127.132, 272.016 125.710 C 284.044 123.682, 293.931 118.867, 302.470 110.880 C 309.423 104.375, 315.818 95.364, 314.392 94.081 C 313.901 93.640, 308.813 90.854, 303.084 87.889 C 294.993 83.703, 292.559 82.825, 292.182 83.955 C 291.105 87.183, 282.410 95.142, 277.125 97.738 C 272.248 100.133, 270.304 100.500, 262.500 100.500 C 254.696 100.500, 252.752 100.133, 247.875 97.738 C 241.239 94.479, 233.731 86.827, 230.684 80.217 C 227.369 73.023, 227.567 59.476, 231.097 52 C 236.748 40.033, 247.608 32.838, 261 32.189 C 271.799 31.665, 278.554 34.381, 286.701 42.521 L 292.902 48.717 303.201 43.230 C 308.866 40.212, 313.688 37.575, 313.918 37.370 C 314.983 36.421, 310.875 30.838, 304.015 23.909 C 289.465 9.213, 269.909 3.245, 250.277 7.511 M 3.242 66.250 L 3.500 125.500 16.250 125.780 L 29 126.060 29 101.030 L 29 76 56 76 L 83 76 83 101 L 83 126 96 126 L 109 126 109 66.500 L 109 7 96 7 L 83 7 83 28.500 L 83 50 56 50 L 29 50 29 28.500 L 29 7 15.992 7 L 2.984 7 3.242 66.250 M 116 66.500 L 116 126 129 126 L 142 126 142 102.500 L 142 79 169.032 79 L 196.063 79 195.782 67.250 L 195.500 55.500 168.750 55.234 L 142 54.967 142 42.498 L 142 30.029 172.250 29.765 L 202.500 29.500 202.783 18.250 L 203.066 7 159.533 7 L 116 7 116 66.500 M 320.242 66.250 L 320.500 125.500 363 125.500 L 405.500 125.500 405.783 114.250 L 406.066 103 376.033 103 L 346 103 346 55 L 346 7 332.992 7 L 319.984 7 320.242 66.250" stroke="none" fill="#263d80" fill-rule="evenodd"/></svg>